HIERARCHY
ROOT Hips
{
	OFFSET 0.00000 0.00000 0.00000
	CHANNELS 6 Xposition Yposition Zposition Zrotation Yrotation Xrotation 
	JOINT RightUpLegDummy
	{
		OFFSET 0 0 0
		CHANNELS 3 Zrotation Yrotation Xrotation
		JOINT RightUpLeg
		{
			OFFSET -3.52197 -3.41223 0.04002
			CHANNELS 3 Zrotation Yrotation Xrotation
			JOINT RightLeg
			{
				OFFSET -1.06336 -17.58347 1.60435
				CHANNELS 3 Zrotation Yrotation Xrotation
				JOINT RightFoot
				{
					OFFSET -0.27018 -17.05419 -1.63900
					CHANNELS 3 Zrotation Yrotation Xrotation
					JOINT RightToes
					{
						OFFSET 0.00298 -1.73825 3.34613
						CHANNELS 3 Zrotation Yrotation Xrotation
						End Site
						{
							OFFSET 0.00480 -0.05416 3.85043
						}
					}
				}
			}
		}
	}
	JOINT SpineDummy
	{
		OFFSET 0 0 0
		CHANNELS 3 Zrotation Yrotation Xrotation
		JOINT Spine
		{
			OFFSET 0.00000 4.14613 0.00000
			CHANNELS 3 Zrotation Yrotation Xrotation
			JOINT Spine1
			{
				OFFSET 0.00000 10.93369 0.05002
				CHANNELS 3 Zrotation Yrotation Xrotation
				JOINT HEadDummy
				{
					OFFSET 0 0 0
					CHANNELS 3 Zrotation Yrotation Xrotation
					JOINT Head
					{
						OFFSET 0.00000 5.52901 0.00438
						CHANNELS 3 Zrotation Yrotation Xrotation
						End Site
						{
							OFFSET -0.11417 7.29012 0.98962
						}
					}
				}
				JOINT LeftShoulder1Dummy
				{
					OFFSET 0 0 0
					CHANNELS 3 Zrotation Yrotation Xrotation
					JOINT LeftShoulder1
					{
						OFFSET 3.53937 -0.14262 -0.08662
						CHANNELS 3 Zrotation Yrotation Xrotation
						JOINT LeftArm
						{
							OFFSET 4.04833 -0.00133 0.12681
							CHANNELS 3 Zrotation Yrotation Xrotation
							JOINT LeftForeArm
							{
								OFFSET 9.67557 0.03289 -0.56117
								CHANNELS 3 Zrotation Yrotation Xrotation
								JOINT LeftHand
								{
									OFFSET 10.17679 0.06873 0.40307
									CHANNELS 3 Zrotation Yrotation Xrotation
									End Site
									{
										OFFSET 6.59293 -0.21483 0.59213
									}
								}
							}
						}
					}
				}
				JOINT RightShoulderDummy
				{
					OFFSET 0 0 0
					CHANNELS 3 Zrotation Yrotation Xrotation
					JOINT RightShoulder
					{
						OFFSET -3.53937 -0.14262 -0.08660
						CHANNELS 3 Zrotation Yrotation Xrotation
						JOINT RightArm
						{
							OFFSET -4.04833 -0.00132 0.12683
							CHANNELS 3 Zrotation Yrotation Xrotation
							JOINT RightForeArm
							{
								OFFSET -9.67570 0.03289 -0.56114
								CHANNELS 3 Zrotation Yrotation Xrotation
								JOINT RightHand
								{
									OFFSET -10.17679 0.06867 0.40304
									CHANNELS 3 Zrotation Yrotation Xrotation
									End Site
									{
										OFFSET -6.54841 -0.21495 0.59212
									}
								}
							}
						}
					}
				}
			}
		}
	}
	JOINT LeftUpLegDummy
	{
		OFFSET 0 0 0
		CHANNELS 3 Zrotation Yrotation Xrotation
		JOINT LeftUpLeg
		{
			OFFSET 3.52197 -3.41223 0.04002
			CHANNELS 3 Zrotation Yrotation Xrotation
			JOINT LeftLeg
			{
				OFFSET 1.08359 -17.35354 1.60336
				CHANNELS 3 Zrotation Yrotation Xrotation
				JOINT LeftFoot
				{
					OFFSET 0.24986 -17.28405 -1.63802
					CHANNELS 3 Zrotation Yrotation Xrotation
					JOINT LeftToes
					{
						OFFSET -0.01575 -1.73822 3.34610
						CHANNELS 3 Zrotation Yrotation Xrotation
						End Site
						{
							OFFSET 0.03150 -0.01868 3.85031
						}
					}
				}
			}
		}
	}
}
MOTION
Frames: 12
Frame Time: 0.033333
-18.7104 39.8693 11.3399 179.3820 -58.9340 178.9280 0.0000 0.0000 0.0000 -14.3626 -9.8250 -6.4906 1.1221 4.6055 30.2788 -4.2741 0.4143 -0.2837 -0.0000 -0.0000 0.0000 0.0000 0.0000 0.0000 0.4284 3.3213 9.0026 -5.5880 5.0485 13.5922 0.0000 0.0000 0.0000 -7.3073 20.0473 -10.7871 0.0000 0.0000 0.0000 -19.9005 -7.2794 2.8417 16.0238 -43.0580 -58.2981 -179.8041 -82.1607 -170.7102 9.9057 1.1430 -0.3023 0.0000 0.0000 0.0000 8.5069 3.5833 1.1322 42.1879 68.7210 0.2709 -175.3465 79.9409 -144.5270 -8.7624 -4.7681 -0.0143 0.0000 0.0000 0.0000 6.8478 14.3890 -16.7913 -0.6493 0.0637 13.3884 6.9681 -0.8748 4.5491 0.0000 0.0000 -0.0000
-19.3999 40.0745 11.7670 179.2980 -57.5249 178.9640 0.0000 0.0000 0.0000 -11.7816 -12.0892 -9.7884 5.0433 9.3445 32.4277 -1.6301 0.1593 -5.2178 -0.0000 -0.0000 0.0000 0.0000 0.0000 0.0000 0.2994 2.9407 9.1631 -5.3573 4.5448 13.1569 0.0000 0.0000 0.0000 -7.9469 21.2353 -10.1614 0.0000 0.0000 0.0000 -18.3641 -6.9867 2.6148 20.4804 -41.5060 -62.6176 -179.5157 -84.8507 -171.8621 10.7797 0.6726 -0.3691 0.0000 0.0000 0.0000 7.8776 3.3238 1.0527 43.4569 73.1770 1.5107 -173.9589 82.3478 -143.8202 -9.2418 -4.4953 -0.0334 0.0000 0.0000 0.0000 6.3824 13.2961 -15.7080 -0.1239 2.6704 13.5552 7.8133 -0.9444 3.7276 0.0000 0.0000 -0.0000
-20.0380 40.2472 12.1202 179.5300 -56.1867 178.6330 0.0000 0.0000 0.0000 -8.3601 -13.7712 -12.3580 8.8374 14.2468 32.9741 0.3244 0.1596 -9.9335 -0.0000 -0.0000 0.0000 0.0000 0.0000 0.0000 0.1208 2.6713 9.6674 -4.5674 4.0040 12.2153 0.0000 0.0000 0.0000 -7.6329 22.0709 -9.5028 0.0000 0.0000 0.0000 -17.1460 -6.8004 2.4522 23.0634 -40.0714 -65.1860 -178.8659 -87.5232 -172.8377 11.7499 0.6009 -0.4090 0.0000 0.0000 0.0000 7.1666 2.9389 0.9520 46.5167 76.8099 4.2714 -171.8852 84.2222 -141.5159 -10.1550 -4.6499 -0.0213 0.0000 0.0000 0.0000 6.0421 12.8856 -14.6474 0.2577 4.3920 13.7467 8.5191 -0.9820 2.8623 0.0000 0.0000 -0.0000
-20.6242 40.3656 12.4530 179.5860 -55.4494 177.9430 0.0000 0.0000 0.0000 -5.1916 -14.5766 -13.2763 12.3147 20.1849 31.5725 2.8114 0.2958 -14.1543 -0.0000 -0.0000 0.0000 0.0000 0.0000 0.0000 0.0402 2.4115 10.7310 -3.6205 3.4675 11.3061 0.0000 0.0000 0.0000 -7.4591 22.5423 -9.2626 0.0000 0.0000 0.0000 -16.2982 -6.8527 2.3841 24.4922 -39.4583 -66.8539 -163.6403 -89.8998 172.0433 12.3859 0.5848 -0.4324 0.0000 0.0000 0.0000 7.0272 2.7407 0.9153 46.8000 79.2264 4.5162 -168.7137 85.9014 -138.8534 -10.4963 -4.5011 -0.0331 0.0000 0.0000 0.0000 5.3056 13.4724 -13.6724 0.5562 4.5161 14.5383 9.1716 -0.9891 1.7906 0.0000 0.0000 -0.0000
-21.1738 40.3827 12.7765 179.1880 -55.2242 177.5080 0.0000 0.0000 0.0000 -2.7884 -13.9805 -13.5543 13.3588 24.1901 29.0158 3.8727 0.4625 -17.1427 -0.0000 -0.0000 0.0000 0.0000 0.0000 0.0000 0.4100 1.8402 11.7481 -3.2566 2.8408 11.0382 0.0000 0.0000 0.0000 -7.8591 23.2224 -9.5653 0.0000 0.0000 0.0000 -16.4958 -7.0170 2.4416 25.6437 -38.8948 -67.8914 -0.3433 -88.9834 9.2212 13.0771 0.9327 -0.4196 0.0000 0.0000 0.0000 6.8852 2.5422 0.8784 48.9633 80.9995 6.5620 -163.6993 87.0993 -133.6353 -11.5799 -4.9497 0.0083 0.0000 0.0000 0.0000 3.7123 16.5851 -13.5939 0.4574 1.8071 16.4083 10.0539 -0.9881 0.4709 0.0000 0.0000 -0.0000
-21.6774 40.2638 13.0916 179.0340 -55.6694 176.5500 0.0000 0.0000 0.0000 -1.0549 -12.0349 -13.0655 11.9368 24.5559 26.1601 1.6422 0.4492 -16.5247 -0.0000 -0.0000 0.0000 0.0000 0.0000 0.0000 1.9052 1.0713 13.0819 -3.4271 2.2790 11.2375 0.0000 0.0000 0.0000 -8.5031 23.2507 -10.5341 0.0000 0.0000 0.0000 -17.7681 -7.3821 2.6531 26.4596 -38.9408 -68.5616 0.3525 -89.4067 8.9697 13.3133 0.8804 -0.4325 0.0000 0.0000 0.0000 7.0998 2.7372 0.9191 46.1023 81.6192 3.7984 -161.1363 87.5319 -131.5334 -11.6279 -4.8342 -0.0021 0.0000 0.0000 0.0000 1.5876 22.5006 -14.7102 -0.1141 -4.1022 20.1006 11.0384 -0.9406 -1.2945 0.0000 0.0000 -0.0000
-22.1554 40.0663 13.3902 178.6230 -56.9617 175.6380 0.0000 0.0000 0.0000 -1.0784 -7.0070 -12.6914 9.3039 19.1313 26.8453 -7.2825 0.1638 -10.1388 -0.0000 -0.0000 0.0000 0.0000 0.0000 0.0000 3.7624 0.1975 14.1634 -3.5191 1.6849 12.5736 0.0000 0.0000 0.0000 -9.0027 22.5343 -12.2231 0.0000 0.0000 0.0000 -19.1249 -7.6279 2.8536 26.2412 -40.3020 -69.3894 176.0699 -89.3109 -165.6911 13.4320 0.6369 -0.4638 0.0000 0.0000 0.0000 7.6867 3.0445 0.9980 36.6353 81.1796 -5.2602 -166.6058 86.8371 -138.5344 -11.1065 -4.8512 -0.0007 0.0000 0.0000 0.0000 0.5663 24.4708 -16.2021 -1.4837 -6.8849 25.4461 11.5136 -0.8837 -2.4374 0.0000 0.0000 -0.0000
-22.5824 39.7370 13.6175 177.1160 -59.3076 175.4910 0.0000 0.0000 0.0000 -3.1155 -3.6678 -11.5088 7.2090 14.3125 28.7627 -6.9854 0.1638 -11.1485 -0.0000 -0.0000 0.0000 0.0000 0.0000 0.0000 4.5791 -0.6463 14.5299 -3.4828 1.0042 14.9917 0.0000 0.0000 0.0000 -9.9159 21.0249 -14.2603 0.0000 0.0000 0.0000 -20.7183 -7.7652 3.0550 24.5363 -43.0446 -69.1855 178.9891 -87.7220 -168.4804 14.3961 0.7134 -0.4875 0.0000 0.0000 0.0000 7.9193 3.1271 1.0251 28.4080 79.3523 -12.9321 -170.9972 85.2063 -142.3426 -11.9647 -5.8678 0.0996 0.0000 0.0000 0.0000 -0.1073 24.9623 -19.1345 -4.7307 -8.7121 33.8249 10.6045 -0.8987 -1.3455 0.0000 0.0000 -0.0000
-23.0984 39.4870 13.7841 177.5870 -62.1471 174.2230 0.0000 0.0000 0.0000 -3.6572 -3.6956 -10.3649 6.0122 11.7596 30.3326 -7.9778 0.1071 -12.2138 -0.0000 -0.0000 0.0000 0.0000 0.0000 0.0000 6.7900 -1.7282 13.5572 -3.9209 0.3459 17.3971 0.0000 0.0000 0.0000 -10.1734 19.6194 -14.7321 0.0000 0.0000 0.0000 -21.1389 -7.7216 3.0897 17.4929 -46.7026 -65.0904 179.6925 -84.7736 -169.0184 13.9113 0.7966 -0.4612 0.0000 0.0000 0.0000 8.5912 3.4883 1.1220 28.5121 75.8214 -12.8977 -173.4018 83.4772 -144.7543 -12.0121 -5.7052 0.0853 0.0000 0.0000 0.0000 0.5392 25.7043 -23.1980 -10.0035 -11.0586 42.8963 6.8641 -0.7207 2.0450 0.0000 0.0000 -0.0000
-23.7150 39.3918 13.8793 178.7840 -64.8917 173.0480 0.0000 0.0000 0.0000 -3.9727 -4.6595 -9.1015 5.1122 10.3481 30.6772 -7.5690 0.0426 -13.5693 -0.0000 -0.0000 0.0000 0.0000 0.0000 0.0000 7.6727 -2.3226 11.5228 -2.6719 -0.6759 19.0670 0.0000 0.0000 0.0000 -10.7132 18.9933 -14.1842 0.0000 0.0000 0.0000 -23.1676 -8.3023 3.4728 8.9997 -47.0070 -57.9863 179.6061 -80.7880 -167.7087 12.3363 0.7072 -0.4193 0.0000 0.0000 0.0000 8.6576 3.4481 1.1200 33.5230 72.2914 -8.1644 -174.4261 82.4031 -146.0391 -11.1170 -5.4634 0.0534 0.0000 0.0000 0.0000 1.8315 25.3312 -26.6743 -14.2566 -12.1528 48.8935 0.8818 -0.0745 4.5387 0.0000 0.0000 -0.0000
-24.3934 39.4580 13.9857 179.6170 -66.9065 171.9240 0.0000 0.0000 0.0000 -4.4540 -5.2246 -6.7870 4.1627 9.4507 29.5229 -6.9745 0.0282 -14.1654 -0.0000 -0.0000 0.0000 0.0000 0.0000 0.0000 8.1487 -3.1317 10.1225 -2.4235 -1.6274 19.5515 0.0000 0.0000 0.0000 -10.1534 19.6309 -12.3241 0.0000 0.0000 0.0000 -24.1214 -8.4773 3.6329 2.9036 -44.4334 -51.9083 179.2694 -77.0291 -165.2489 11.7118 1.4971 -0.3216 0.0000 0.0000 0.0000 9.1599 3.7046 1.1938 38.6228 69.5026 -3.3295 -174.2523 82.2754 -144.8488 -10.6844 -5.6802 0.0696 0.0000 0.0000 0.0000 3.1092 25.9917 -27.1910 -12.9515 -11.2075 48.3278 0.6134 -0.0222 2.3643 0.0000 0.0000 -0.0000
-25.0427 39.6541 14.0269 178.1210 -68.3317 172.6800 0.0000 0.0000 0.0000 -5.5343 -4.2679 -3.9038 2.7730 8.0072 27.5530 -6.6098 0.0494 -13.9147 -0.0000 -0.0000 0.0000 0.0000 0.0000 0.0000 7.1185 -3.6933 9.3644 -2.7510 -2.2888 19.3677 0.0000 0.0000 0.0000 -8.6976 20.5345 -9.9026 0.0000 0.0000 0.0000 -24.5371 -8.3351 3.6370 1.4602 -40.6722 -48.9213 179.3886 -75.2637 -165.2406 11.5712 1.8537 -0.2846 0.0000 0.0000 0.0000 9.5974 3.9272 1.2595 41.1752 67.8146 -0.9611 -174.1992 82.5223 -145.2827 -9.9398 -5.2635 0.0278 0.0000 0.0000 0.0000 3.9927 26.2372 -24.6747 -8.1341 -9.9973 40.8709 4.6162 -0.4281 -0.4782 0.0000 0.0000 -0.0000
